<svg version="1.1" xmlns="http://www.w3.org/2000/svg">
  <defs>
    <symbol id="add" viewBox="0 0 24 24">
      <path d="M19 13h-6v6h-2v-6H5v-2h6V5h2v6h6v2z"/>
      <path d="M0 0h24v24H0z" fill="none"/>
    </symbol>
    <symbol id="cancel" viewBox="0 0 24 24">
      <path d="M12 2C6.47 2 2 6.47 2 12s4.47 10 10 10 10-4.47 10-10S17.53 2 12 2zm5 13.59L15.59 17 12 13.41 8.41 17 7 15.59 10.59 12 7 8.41 8.41 7 12 10.59 15.59 7 17 8.41 13.41 12 17 15.59z"/>
      <path d="M0 0h24v24H0z" fill="none"/>
    </symbol>
    <symbol id="check" viewBox="0 0 24 24">
      <path d="M0 0h24v24H0z" fill="none"/>
      <path d="M9 16.17L4.83 12l-1.42 1.41L9 19 21 7l-1.41-1.41z"/>
    </symbol>
    <symbol id="building" viewBox="0 0 48 48">
      <path d="M0 0h48v48H0z" fill="none"/>
      <path d="M24 14V6H4v36h40V14H24zM12 38H8v-4h4v4zm0-8H8v-4h4v4zm0-8H8v-4h4v4zm0-8H8v-4h4v4zm8 24h-4v-4h4v4zm0-8h-4v-4h4v4zm0-8h-4v-4h4v4zm0-8h-4v-4h4v4zm20 24H24v-4h4v-4h-4v-4h4v-4h-4v-4h16v20zm-4-16h-4v4h4v-4zm0 8h-4v4h4v-4z"/>
    </symbol>
    <symbol id="delete" viewBox="0 0 24 24">
      <path d="M6 19c0 1.1.9 2 2 2h8c1.1 0 2-.9 2-2V7H6v12zM19 4h-3.5l-1-1h-5l-1 1H5v2h14V4z"/>
      <path d="M0 0h24v24H0z" fill="none"/>
    </symbol>
    <symbol id="edit" viewBox="0 0 24 24">
      <path d="M3 17.25V21h3.75L17.81 9.94l-3.75-3.75L3 17.25zM20.71 7.04c.39-.39.39-1.02 0-1.41l-2.34-2.34c-.39-.39-1.02-.39-1.41 0l-1.83 1.83 3.75 3.75 1.83-1.83z"/>
      <path d="M0 0h24v24H0z" fill="none"/>
    </symbol>
    <symbol id="lock" viewBox="0 0 24 24">
      <path d="M0 0h24v24H0z" fill="none"/>
      <path d="M18 8h-1V6c0-2.76-2.24-5-5-5S7 3.24 7 6v2H6c-1.1 0-2 .9-2 2v10c0 1.1.9 2 2 2h12c1.1 0 2-.9 2-2V10c0-1.1-.9-2-2-2zm-6 9c-1.1 0-2-.9-2-2s.9-2 2-2 2 .9 2 2-.9 2-2 2zm3.1-9H8.9V6c0-1.71 1.39-3.1 3.1-3.1 1.71 0 3.1 1.39 3.1 3.1v2z"/>
    </symbol>
    <symbol id="menu" viewBox="0 0 24 24">
      <path d="M0 0h24v24H0z" fill="none"/>
      <path d="M3 18h18v-2H3v2zm0-5h18v-2H3v2zm0-7v2h18V6H3z"/>
    </symbol>
    <symbol id="save" viewBox="0 0 24 24">
      <path d="M0 0h24v24H0z" fill="none"/>
      <path d="M17 3H5c-1.11 0-2 .9-2 2v14c0 1.1.89 2 2 2h14c1.1 0 2-.9 2-2V7l-4-4zm-5 16c-1.66 0-3-1.34-3-3s1.34-3 3-3 3 1.34 3 3-1.34 3-3 3zm3-10H5V5h10v4z"/>
    </symbol>
    <symbol id="search" viewBox="0 0 24 24">
      <path d="M15.5 14h-.79l-.28-.27C15.41 12.59 16 11.11 16 9.5 16 5.91 13.09 3 9.5 3S3 5.91 3 9.5 5.91 16 9.5 16c1.61 0 3.09-.59 4.23-1.57l.27.28v.79l5 4.99L20.49 19l-4.99-5zm-6 0C7.01 14 5 11.99 5 9.5S7.01 5 9.5 5 14 7.01 14 9.5 11.99 14 9.5 14z"/>
      <path d="M0 0h24v24H0z" fill="none"/>
    </symbol>
    <symbol id="unlock" viewBox="0 0 24 24">
      <path d="M0 0h24v24H0z" fill="none"/>
      <path d="M12 17c1.1 0 2-.9 2-2s-.9-2-2-2-2 .9-2 2 .9 2 2 2zm6-9h-1V6c0-2.76-2.24-5-5-5S7 3.24 7 6h1.9c0-1.71 1.39-3.1 3.1-3.1 1.71 0 3.1 1.39 3.1 3.1v2H6c-1.1 0-2 .9-2 2v10c0 1.1.9 2 2 2h12c1.1 0 2-.9 2-2V10c0-1.1-.9-2-2-2zm0 12H6V10h12v10z"/>
    </symbol>
    <symbol id="user" viewBox="0 0 24 24">
      <path d="M12 12c2.21 0 4-1.79 4-4s-1.79-4-4-4-4 1.79-4 4 1.79 4 4 4zm0 2c-2.67 0-8 1.34-8 4v2h16v-2c0-2.66-5.33-4-8-4z"/>
      <path d="M0 0h24v24H0z" fill="none"/>
    </symbol>
  </defs>
</svg>