<?xml version="1.0" encoding="UTF-8" standalone="no"?><!DOCTYPE svg PUBLIC "-//W3C//DTD SVG 1.1//EN" "http://www.w3.org/Graphics/SVG/1.1/DTD/svg11.dtd"><svg width="100%" height="100%" viewBox="0 0 180 180" version="1.1" xmlns="http://www.w3.org/2000/svg" xmlns:xlink="http://www.w3.org/1999/xlink" xml:space="preserve" xmlns:serif="http://www.serif.com/" style="fill-rule:evenodd;clip-rule:evenodd;stroke-linejoin:round;stroke-miterlimit:1.41421;"><g><path d="M90,14.053c-41.873,0 -75.947,34.074 -75.947,75.947c0,41.873 34.074,75.947 75.947,75.947c41.873,0 75.947,-34.074 75.947,-75.947c0,-41.873 -34.074,-75.947 -75.947,-75.947m0,165.947c-49.627,0 -90,-40.373 -90,-90c0,-49.627 40.373,-90 90,-90c49.627,0 90,40.373 90,90c0,49.627 -40.373,90 -90,90" style="fill:#0E77D2;fill-rule:nonzero;"/><path d="M62.128,121.358l0,-30.653c0,-3.08 2.313,-6.574 5.127,-7.78l14.386,-6.167l0,19.513l13.934,8.36c2.813,1.42 8.36,1.467 8.36,-2.786l0,-8.36l-5.567,-2.787l0,-39.027l-42.493,15.66c-5.787,2.127 -10.467,8.827 -10.467,15.007l0,45.987l16.72,-6.967Zm58.533,-66.893l13.934,5.573l0,50.167c0,10.773 -13.307,12.673 -22.294,13.933c5.14,-1.26 8.387,-2.693 8.36,-13.933l0,-44.594l-13.933,-5.573l13.933,-5.573Z" style="fill:#0E77D2;fill-rule:nonzero;"/></g></svg>
