<?xml version="1.0" encoding="utf-8"?>
<!-- Generator: Adobe Illustrator 21.1.0, SVG Export Plug-In . SVG Version: 6.00 Build 0)  -->
<svg version="1.1" id="Layer_1" xmlns="http://www.w3.org/2000/svg" xmlns:xlink="http://www.w3.org/1999/xlink" x="0px" y="0px"
	 viewBox="0 0 175 120" style="enable-background:new 0 0 175 120;" xml:space="preserve">
<style type="text/css">
	.st0{clip-path:url(#SVGID_2_);}
	.st1{clip-path:url(#SVGID_4_);fill:#1C68A5;}
	.st2{fill:none;}
</style>
<g>
	<defs>
		<path id="SVGID_1_" d="M112.8,80.5c0,6.1-7.5,7.3-12.7,8c3-0.7,4.8-1.6,4.7-8V55L97,51.9l8-3.1l8,3.1v28.6H112.8z M95.5,75.7
			c0,2.4-3.1,2.4-4.7,1.6l-8-4.7V61.5L74.5,65c-1.6,0.7-3,2.7-3,4.4v17.5l-9.5,4V64.6c0-3.6,2.7-7.4,6-8.5l24.2-9v22.2l3.1,1.6v4.8
			H95.5z M87.5,17.8c-28.3,0-51.2,22.9-51.2,51.2s22.9,51.2,51.2,51.2s51.2-22.9,51.2-51.2S115.8,17.8,87.5,17.8z"/>
	</defs>
	<clipPath id="SVGID_2_">
		<use xlink:href="#SVGID_1_"  style="overflow:visible;"/>
	</clipPath>
	<g class="st0">
		<defs>
			<rect id="SVGID_3_" x="-88.8" y="-302.2" width="10800" height="4810"/>
		</defs>
		<clipPath id="SVGID_4_">
			<use xlink:href="#SVGID_3_"  style="overflow:visible;"/>
		</clipPath>
		<rect x="23.8" y="5.2" class="st1" width="127.5" height="127.5"/>
	</g>
</g>
<rect class="st2" width="175" height="120"/>
</svg>
