<?xml version="1.0" encoding="utf-8"?>
<!-- Generator: Adobe Illustrator 21.1.0, SVG Export Plug-In . SVG Version: 6.00 Build 0)  -->
<svg version="1.1" id="Layer_1" xmlns="http://www.w3.org/2000/svg" xmlns:xlink="http://www.w3.org/1999/xlink" x="0px" y="0px"
	 viewBox="0 0 180 180" style="enable-background:new 0 0 180 180;" xml:space="preserve">
<style type="text/css">
	.st0{fill:#F0B41C;}
	.st1{fill:none;}
</style>
<g id="Artboard" transform="translate(-14.000000, -11.000000)">
	<path id="Shape" class="st0" d="M165.9,29.5L194,40.7v100.9c0,21.7-26.9,25.5-45,28c10.4-2.6,16.9-5.4,16.9-28V52l-28.1-11.2
		L165.9,29.5z M47.7,164.1v-61.6c0-6.2,4.7-13.2,10.3-15.6l29-12.4v39.2l28.1,16.9c5.7,2.9,16.9,2.9,16.9-5.6V108l-11.3-5.6V23.9
		L35.1,55.4C23.5,59.7,14,73.2,14,85.6v92.5L47.7,164.1z"/>
	<rect x="14" y="11" class="st1" width="180" height="180"/>
</g>
</svg>
