<?xml version="1.0" encoding="UTF-8"?>
<svg enable-background="new 0 0 133 32" version="1.1" viewBox="0 0 133 32" xml:space="preserve" xmlns="http://www.w3.org/2000/svg">
<style type="text/css">
	.st0{fill:#FFFFFF;}
	.st1{fill:#FFBB00;}
</style>
<title>Brending</title>
<desc>Created with Sketch.</desc>
	<g transform="translate(-32 -20)">
		<g transform="translate(32 16)">
			<g transform="translate(0 4)">
				<path class="st0" d="m48.1 24.2h-5.1v-14.8h4.8v2.5c0.7-0.9 1.5-1.6 2.5-2.2 0.9-0.5 1.9-0.7 2.9-0.7 1.6 0 2.8 0.4 3.6 1.3s1.2 2.2 1.2 3.9v9.9h-5.1v-8.5c0-0.8-0.2-1.4-0.5-1.8s-0.8-0.6-1.4-0.6c-0.9 0-1.6 0.3-2.1 0.9s-0.7 1.5-0.7 2.6v7.5z"/>
				<path class="st0" d="m70.8 9h5.2v13.6l-4.8 1.9v-2.9c-0.7 0.9-1.5 1.6-2.5 2.2-0.9 0.5-1.9 0.7-2.9 0.7-1.6 0-2.8-0.5-3.6-1.4s-1.2-2.2-1.2-3.9v-10.2h5.1v8.8c0 0.8 0.2 1.4 0.5 1.8s0.8 0.6 1.4 0.6c0.9 0 1.6-0.3 2.1-0.9s0.7-1.5 0.7-2.6v-7.7z"/>
				<polygon class="st0" points="81.7 24.6 79 24.6 79 1.1 81.7 0"/>
				<path class="st0" d="m84 17.1c0-2.3 0.7-4.3 2.2-5.8s3.4-2.3 5.7-2.3 4.2 0.8 5.7 2.3 2.2 3.4 2.2 5.8-0.7 4.3-2.2 5.8-3.4 2.3-5.7 2.3-4.2-0.8-5.7-2.3-2.2-3.5-2.2-5.8zm2.7 0c0 1.8 0.5 3.3 1.4 4.4s2.2 1.7 3.7 1.7c1.6 0 2.8-0.6 3.8-1.7s1.4-2.6 1.4-4.4-0.5-3.3-1.4-4.4c-1-1.1-2.2-1.7-3.8-1.7s-2.8 0.6-3.7 1.7-1.4 2.5-1.4 4.4z"/>
				<path class="st0" d="m113.1 23.6c-0.8 0.4-1.6 0.8-2.4 1s-1.6 0.3-2.4 0.3c-2.2 0-3.9-0.7-5.3-2.2-1.3-1.4-2-3.3-2-5.7s0.7-4.3 2.2-5.8c1.4-1.5 3.3-2.2 5.6-2.2 0.7 0 1.5 0.1 2.2 0.2 0.8 0.1 1.8 0.3 2.9 0.6l1.9-0.8v13.4c0 1.8-0.1 3.1-0.3 3.9-0.1 0.8-0.4 1.5-0.9 2.2-0.6 1-1.5 1.7-2.6 2.2-1.2 0.5-2.6 0.8-3.9 0.8-1 0-1.9-0.1-2.9-0.4s-1.9-0.6-2.8-1.1l-0.4-3.2 2 1.3c0.6 0.4 1.3 0.7 1.9 0.8 0.7 0.2 1.5 0.3 2.3 0.3 1.6 0 2.8-0.4 3.6-1.2 0.9-0.8 1.3-1.9 1.3-3.3v-1.1zm0-2v-9.5c-0.6-0.3-1.3-0.6-2-0.8-0.6-0.2-1.2-0.2-1.9-0.3-1.7 0-3 0.6-4 1.7s-1.5 2.6-1.5 4.4 0.5 3.2 1.4 4.2 2.1 1.6 3.7 1.6c0.6 0 1.3-0.1 1.9-0.3 0.8-0.3 1.6-0.6 2.4-1z"/>
				<path class="st0" d="m118 9h2.8l4.4 11.6 4.9-11.6h2.3l-7.1 16.3-0.1 0.2c-1.1 2.5-2 4.4-2.6 5.4h-2.9c0.6-0.7 1.2-1.4 1.7-2.1 0.6-1 1.2-2 1.6-3.1l1-2.1-6-14.6z"/>
				<path class="st1" d="M30.7,1.1l5.7,2.3v20.5c0,4.4-5.4,5.2-9.1,5.7c2.1-0.5,3.4-1.1,3.4-5.7V5.7L25,3.4L30.7,1.1z       M6.8,28.4V15.9c0-1.3,0.9-2.7,2.1-3.2l5.9-2.5v8l5.7,3.4c1.1,0.6,3.4,0.6,3.4-1.1v-3.4l-2.3-1.1V0L4.3,6.4C1.9,7.3,0,10,0,12.5      v18.8L6.8,28.4z"/>
			</g>
		</g>
	</g>
</svg>
