<?xml version="1.0" encoding="UTF-8"?>
<svg width="188px" height="161px" viewBox="0 0 188 161" version="1.1" xmlns="http://www.w3.org/2000/svg" xmlns:xlink="http://www.w3.org/1999/xlink">
    <!-- Generator: Sketch 52.2 (67145) - http://www.bohemiancoding.com/sketch -->
    <title>Shape</title>
    <desc>Created with Sketch.</desc>
    <g id="Page-1" stroke="none" stroke-width="1" fill="none" fill-rule="evenodd">
        <g id="Artboard" transform="translate(-14.000000, -11.000000)" fill="#F0B41C">
            <path d="M172.62594,16.8520035 L202,28.5560104 L202,133.942005 C202,156.571083 173.938803,160.545652 154.997495,163.212008 C165.831121,160.545652 172.686071,157.549746 172.62594,133.942005 L172.62594,40.2700037 L143.251879,28.5560104 L172.62594,16.8520035 Z M49.2468682,157.360005 L49.2468682,92.9779804 C49.2468682,86.4968366 54.1275121,79.1668527 60.0504291,76.6403052 L90.3765659,63.6580449 L90.3765659,104.602097 L119.750626,122.247984 C125.673543,125.24389 137.379071,125.313795 137.379071,116.385994 L137.379071,98.8199975 L125.613412,92.9580077 L125.613412,11 L36.0480836,43.8850639 C23.8715283,48.3489641 14,62.419737 14,75.4019973 L14,172 L49.2468682,157.360005 Z" id="Shape"></path>
        </g>
    </g>
</svg>