<svg id="Layer_1" data-name="Layer 1" xmlns="http://www.w3.org/2000/svg" viewBox="0 0 680.75 163.63"><defs><style>.cls-1{fill:#1c68a5;}.cls-2{fill:#1c68a6;}.cls-3{fill:#f0b41c;fill-rule:evenodd;}</style></defs><title>Nulogy_Full_Color</title><path class="cls-1" d="M304.93,179.75H278.4V103.38h24.5v12.8a43.12,43.12,0,0,1,13-11.23,31,31,0,0,1,14.92-3.69q12.12,0,18.39,6.95t6.27,20.34v51.2H329.09V136q0-6-2.46-9.07t-7.29-3q-6.94,0-10.68,4.66t-3.73,13.57Z" transform="translate(-55.62 -53.18)"/><path class="cls-2" d="M419.78,103.38h26.37v70.23l-24.5,9.79V168.48a43.58,43.58,0,0,1-13,11.27,30.84,30.84,0,0,1-14.83,3.65q-12.14,0-18.44-7t-6.32-20.35V103.38h26.53v45.27q0,6,2.46,9.11t7.29,3.09q7,0,10.68-4.7t3.73-13.52Z" transform="translate(-55.62 -53.18)"/><path class="cls-2" d="M475.83,179.75h-14v-121l14-5.61Z" transform="translate(-55.62 -53.18)"/><path class="cls-2" d="M488.67,141.52q0-18.14,11.53-29.88T529.44,99.9q17.71,0,29.24,11.74t11.53,29.88q0,18.22-11.53,30t-29.24,11.74q-17.64,0-29.2-11.74T488.67,141.52Zm13.9,0q0,14.25,7.37,22.93t19.33,8.69q12,0,19.41-8.69t7.46-22.93q0-14.15-7.46-22.84T529.27,110q-12,0-19.33,8.69T502.57,141.52Z" transform="translate(-55.62 -53.18)"/><path class="cls-2" d="M640.24,176.11a54.33,54.33,0,0,1-12.38,5.38,44.61,44.61,0,0,1-12.29,1.74q-16.86,0-27.25-11.19t-10.38-29.41q0-18.57,11.1-30.14t29-11.57A69.37,69.37,0,0,1,629.26,102q6.4,1.06,14.8,3.26l9.91-4v68.9q0,13.81-1.31,20.21a32.42,32.42,0,0,1-4.45,11.23,30.37,30.37,0,0,1-13.44,11.19,48.94,48.94,0,0,1-20.21,3.9,58.62,58.62,0,0,1-14.8-1.9,67.36,67.36,0,0,1-14.53-5.73l-2.29-16.61,10.25,6.7a35,35,0,0,0,10,4.24,45.25,45.25,0,0,0,11.86,1.69q12,0,18.61-6T640.24,182Zm0-10.43V116.77a56.11,56.11,0,0,0-10.3-3.94,37.4,37.4,0,0,0-9.54-1.31q-12.79,0-20.59,8.6T592,143q0,13.72,7,21.78t18.86,8.05a32.67,32.67,0,0,0,9.75-1.61A78.86,78.86,0,0,0,640.24,165.68Z" transform="translate(-55.62 -53.18)"/><path class="cls-2" d="M661.87,103.38h14.58l22.88,60,25.18-60h11.87l-36.45,84.17-.6,1.19q-8.64,19.66-13.31,28H670.85a71.63,71.63,0,0,0,8.65-10.93A129.89,129.89,0,0,0,687.89,190l4.92-10.59Z" transform="translate(-55.62 -53.18)"/><path class="cls-3" d="M213.91,61.46l29.31,11.72V178.71c0,22.66-28,26.64-46.9,29.31,10.81-2.67,17.65-5.67,17.59-29.31V84.91L184.6,73.18ZM90.8,202.16V137.69c0-6.49,4.87-13.83,10.78-16.36l30.26-13v41L161.15,167c5.91,3,17.59,3.07,17.59-5.87V143.54L167,137.67V55.6L77.63,88.53c-12.15,4.47-22,18.56-22,31.56v96.73Z" transform="translate(-55.62 -53.18)"/></svg>