<?xml version="1.0" encoding="UTF-8"?>
<svg enable-background="new 0 0 36.4 31.3" version="1.1" viewBox="0 0 36.4 31.3" xml:space="preserve" xmlns="http://www.w3.org/2000/svg">
<style type="text/css">
	.st0{fill:#FFBB00;}
</style>
<title>Brending</title>
<desc>Created with Sketch.</desc>
	<g transform="translate(-32 -20)">
		<g transform="translate(32 16)">
			<g transform="translate(0 4)">
				<path class="st0" d="M30.7,1.1l5.7,2.3v20.5c0,4.4-5.4,5.2-9.1,5.7c2.1-0.5,3.4-1.1,3.4-5.7V5.7L25,3.4L30.7,1.1z       M6.8,28.4V15.9c0-1.3,0.9-2.7,2.1-3.2l5.9-2.5v8l5.7,3.4c1.1,0.6,3.4,0.6,3.4-1.1v-3.4l-2.3-1.1V0L4.3,6.4C1.9,7.3,0,10,0,12.5      v18.8L6.8,28.4z"/>
			</g>
		</g>
	</g>
</svg>
