<?xml version="1.0" encoding="utf-8"?>
<!-- Generator: Adobe Illustrator 21.1.0, SVG Export Plug-In . SVG Version: 6.00 Build 0)  -->
<svg version="1.1" xmlns="http://www.w3.org/2000/svg" xmlns:xlink="http://www.w3.org/1999/xlink" x="0px" y="0px"
	 viewBox="0 0 1278 460" style="enable-background:new 0 0 1278 460;" xml:space="preserve">
<style type="text/css">
	.st0{fill:#0E77D2;}
	.st1{font-family:'IBMPlexSans-Medium';}
	.st2{font-size:18px;}
	.st3{fill:none;}
	.st4{fill:#FFFFFF;}
	.st5{font-size:12px;}
	.st6{font-family:'IBMPlexSans';}
	.st7{font-size:14px;}
	.st8{display:none;}
	.st9{display:inline;}
	.st10{display:inline;fill:none;}
	.st11{display:inline;fill:#FFFFFF;}
	.st12{font-family:'IBMPlexSans-Italic';}
</style>
<g id="design">
	<rect x="1198.1" y="89.5" width="17" height="45"/>
	<rect x="881.1" y="89.5" width="17" height="135"/>
	<rect x="564.1" y="89.5" width="17" height="315"/>
	<rect x="248.1" y="89.5" width="16.5" height="135"/>
	<g>
		<path class="st0" d="M892,179H636.1c-1.1,0-2-0.9-2-2v-40c0-1.1,0.9-2,2-2H892c1.1,0,2,0.9,2,2v40C894,178.1,893.1,179,892,179z"
			/>
	</g>
	<g>
		<path class="st0" d="M892,224H636.1c-1.1,0-2-0.9-2-2v-40c0-1.1,0.9-2,2-2H892c1.1,0,2,0.9,2,2v40C894,223.1,893.1,224,892,224z"
			/>
	</g>
	<g>
		<path class="st0" d="M891.9,134H636c-1.1,0-2-0.9-2-2V92c0-1.1,0.9-2,2-2h255.9c1.1,0,2,0.9,2,2v40C893.9,133.1,893,134,891.9,134
			z"/>
	</g>
	<g>
		<path class="st0" d="M574.9,404H319c-1.1,0-2-0.9-2-2v-40c0-1.1,0.9-2,2-2h255.9c1.1,0,2,0.9,2,2v40
			C576.9,403.1,576,404,574.9,404z"/>
	</g>
	<g>
		<path class="st0" d="M575,314H319.1c-1.1,0-2-0.9-2-2v-40c0-1.1,0.9-2,2-2H575c1.1,0,2,0.9,2,2v40C577,313.1,576.1,314,575,314z"
			/>
	</g>
	<g>
		<path class="st0" d="M575,359H319.1c-1.1,0-2-0.9-2-2v-40c0-1.1,0.9-2,2-2H575c1.1,0,2,0.9,2,2v40C577,358.1,576.1,359,575,359z"
			/>
	</g>
	<g>
		<path class="st0" d="M574.9,269H319c-1.1,0-2-0.9-2-2v-40c0-1.1,0.9-2,2-2h255.9c1.1,0,2,0.9,2,2v40
			C576.9,268.1,576,269,574.9,269z"/>
	</g>
	<g>
		<path class="st0" d="M575,179H319.1c-1.1,0-2-0.9-2-2v-40c0-1.1,0.9-2,2-2H575c1.1,0,2,0.9,2,2v40C577,178.1,576.1,179,575,179z"
			/>
	</g>
	<g>
		<path class="st0" d="M575,224H319.1c-1.1,0-2-0.9-2-2v-40c0-1.1,0.9-2,2-2H575c1.1,0,2,0.9,2,2v40C577,223.1,576.1,224,575,224z"
			/>
	</g>
	<g>
		<path class="st0" d="M574.9,134H319c-1.1,0-2-0.9-2-2V92c0-1.1,0.9-2,2-2h255.9c1.1,0,2,0.9,2,2v40C576.9,133.1,576,134,574.9,134
			z"/>
	</g>
	<g>
		<path class="st0" d="M258,179H2.1c-1.1,0-2-0.9-2-2v-40c0-1.1,0.9-2,2-2H258c1.1,0,2,0.9,2,2v40C260,178.1,259.1,179,258,179z"/>
	</g>
	<g>
		<path class="st0" d="M258,224H2.1c-1.1,0-2-0.9-2-2v-40c0-1.1,0.9-2,2-2H258c1.1,0,2,0.9,2,2v40C260,223.1,259.1,224,258,224z"/>
	</g>
	<g>
		<path class="st0" d="M257.9,134H2c-1.1,0-2-0.9-2-2V92c0-1.1,0.9-2,2-2h255.9c1.1,0,2,0.9,2,2v40C259.9,133.1,259,134,257.9,134z"
			/>
	</g>
	<text transform="matrix(0 1 -1 0 271.4922 87.5985)" class="st1 st2">Detailed Overview</text>
	<text transform="matrix(0 1 -1 0 587.9873 88.1018)" class="st1 st2">Guidelines</text>
	<rect x="22.1" y="103.9" class="st3" width="266" height="110.1"/>
	<text transform="matrix(1 0 0 1 22.1405 117.229)"><tspan x="0" y="0" class="st4 st1 st2">Anatomy</tspan><tspan x="0" y="45" class="st4 st1 st2">Specs</tspan><tspan x="0" y="90" class="st4 st1 st2">States</tspan></text>
	<text transform="matrix(0 1 -1 0 905.3633 85.7266)" class="st1 st2">Types</text>
	<text transform="matrix(0 1 -1 0 1221.7793 89.3093)" class="st1 st2">Parts</text>
	<text transform="matrix(1 0 0 1 339.2303 119.1913)"><tspan x="0" y="0" class="st4 st1 st2">Best practices</tspan><tspan x="0" y="45" class="st4 st1 st2">Hierarchy</tspan><tspan x="0" y="90" class="st4 st1 st2">Placement</tspan><tspan x="0" y="135" class="st4 st1 st2">Accessibility guidelines</tspan><tspan x="0" y="180" class="st4 st1 st2">Animation guidelines</tspan><tspan x="0" y="225" class="st4 st1 st2">Animation guidelines</tspan><tspan x="0" y="270" class="st4 st1 st2">Responsive design </tspan><tspan x="157.8" y="270" class="st4 st1 st5">guidelines</tspan></text>
	<text transform="matrix(1 0 0 1 656.2303 119.1914)"><tspan x="0" y="0" class="st4 st1 st2">Variations</tspan><tspan x="0" y="45" class="st4 st1 st2">Props</tspan><tspan x="0" y="90" class="st4 st1 st2">Themes</tspan></text>
	<g>
		<path class="st0" d="M1209,134H953c-1.1,0-2-0.9-2-2V92c0-1.1,0.9-2,2-2h256c1.1,0,2,0.9,2,2v40C1211,133.1,1210.1,134,1209,134z"
			/>
	</g>
	<text transform="matrix(1 0 0 1 973.2303 119.1914)" class="st4 st1 st2">Component part</text>
	<g>
		<text transform="matrix(1 0 0 1 2.2655 62.604)" class="st1 st2">Subsections of Design section</text>
	</g>
	<rect x="778.2" y="356.6" class="st3" width="453" height="49.5"/>
	<text transform="matrix(1 0 0 1 778.2264 366.9492)"><tspan x="0" y="0" class="st6 st7">Groupings are not reflected in the IA of the page, they are used here to </tspan><tspan x="0" y="24" class="st6 st7">provide rationale for how the order of the subsections was determined.</tspan></text>
</g>
<g id="intro" class="st8">
	<g class="st9">
		<path class="st0" d="M891.9,134H636c-1.1,0-2-0.9-2-2V92c0-1.1,0.9-2,2-2h255.9c1.1,0,2,0.9,2,2v40C893.9,133.1,893,134,891.9,134
			z"/>
	</g>
	<g class="st9">
		<path class="st0" d="M574.9,134H319c-1.1,0-2-0.9-2-2V92c0-1.1,0.9-2,2-2h255.9c1.1,0,2,0.9,2,2v40C576.9,133.1,576,134,574.9,134
			z"/>
	</g>
	<g class="st9">
		<path class="st0" d="M257.9,134H2c-1.1,0-2-0.9-2-2V92c0-1.1,0.9-2,2-2h255.9c1.1,0,2,0.9,2,2v40C259.9,133.1,259,134,257.9,134z"
			/>
	</g>
	<rect x="22.1" y="103.9" class="st10" width="266" height="165.6"/>
	<text transform="matrix(1 0 0 1 22.1405 117.229)" class="st11 st1 st2">Title</text>
	<text transform="matrix(1 0 0 1 339.2303 119.1913)" class="st11 st1 st2">Deck / Description</text>
	<text transform="matrix(1 0 0 1 656.2303 119.1914)" class="st11 st1 st2">When to Use</text>
	<g class="st9">
		<path class="st0" d="M1209,134H953c-1.1,0-2-0.9-2-2V92c0-1.1,0.9-2,2-2h256c1.1,0,2,0.9,2,2v40C1211,133.1,1210.1,134,1209,134z"
			/>
	</g>
	<text transform="matrix(1 0 0 1 973.2303 119.1914)" class="st11 st1 st2">Example</text>
	<g class="st9">
		<text transform="matrix(1 0 0 1 2.2655 62.604)" class="st1 st2">Subsections of Introduction section</text>
	</g>
</g>
<g id="content" class="st8">
	<g class="st9">
		<path class="st0" d="M257.9,134H2c-1.1,0-2-0.9-2-2V92c0-1.1,0.9-2,2-2h255.9c1.1,0,2,0.9,2,2v40C259.9,133.1,259,134,257.9,134z"
			/>
	</g>
	<rect x="22.1" y="103.9" class="st10" width="266" height="165.6"/>
	<text transform="matrix(1 0 0 1 22.1405 117.229)" class="st11 st1 st2">Writing Dos and Donts</text>
	<g class="st9">
		<text transform="matrix(1 0 0 1 319.2303 119.1913)" class="st12 st2">Coming Soon</text>
	</g>
	<g class="st9">
		<text transform="matrix(1 0 0 1 2.2655 62.604)" class="st1 st2">Subsections of Content section</text>
	</g>
</g>
<g id="developement" class="st8">
	<g class="st9">
		<path class="st0" d="M257.9,134H2c-1.1,0-2-0.9-2-2V92c0-1.1,0.9-2,2-2h255.9c1.1,0,2,0.9,2,2v40C259.9,133.1,259,134,257.9,134z"
			/>
	</g>
	<rect x="22.1" y="103.9" class="st10" width="266" height="165.6"/>
	<text transform="matrix(1 0 0 1 22.1405 117.229)" class="st11 st1 st2">Storybook</text>
	<g class="st9">
		<text transform="matrix(1 0 0 1 319.2303 119.1913)" class="st12 st2">Coming Soon</text>
	</g>
	<g class="st9">
		<text transform="matrix(1 0 0 1 2.2655 62.604)" class="st1 st2">Subsections of Development section</text>
	</g>
</g>
<g id="related" class="st8">
	<g class="st9">
		<path class="st0" d="M932,134H636c-1.1,0-2-0.9-2-2V92c0-1.1,0.9-2,2-2h296c1.1,0,2,0.9,2,2v40C934,133.1,933.1,134,932,134z"/>
	</g>
	<g class="st9">
		<path class="st0" d="M615,134H319c-1.1,0-2-0.9-2-2V92c0-1.1,0.9-2,2-2h296c1.1,0,2,0.9,2,2v40C617,133.1,616.1,134,615,134z"/>
	</g>
	<g class="st9">
		<path class="st0" d="M298,134H2c-1.1,0-2-0.9-2-2V92c0-1.1,0.9-2,2-2h296c1.1,0,2,0.9,2,2v40C300,133.1,299.1,134,298,134z"/>
	</g>
	<rect x="22.1" y="103.9" class="st10" width="266" height="165.6"/>
	<text transform="matrix(1 0 0 1 22.1405 117.229)" class="st11 st1 st2">Token and utility functions</text>
	<text transform="matrix(1 0 0 1 339.2303 119.1913)" class="st11 st1 st2">Related components</text>
	<text transform="matrix(1 0 0 1 656.2303 119.1914)" class="st11 st1 st2">Reference links</text>
	<g class="st9">
		<path class="st0" d="M1249,134H953c-1.1,0-2-0.9-2-2V92c0-1.1,0.9-2,2-2h296c1.1,0,2,0.9,2,2v40C1251,133.1,1250.1,134,1249,134z"
			/>
	</g>
	<text transform="matrix(1 0 0 1 973.2303 119.1914)" class="st11 st1 st2">Sketch file</text>
	<g class="st9">
		<text transform="matrix(1 0 0 1 2.2655 62.604)" class="st1 st2">Subsections of Related section</text>
	</g>
	<g class="st9">
		<g>
			<path class="st0" d="M298,199H2c-1.1,0-2-0.9-2-2v-40c0-1.1,0.9-2,2-2h296c1.1,0,2,0.9,2,2v40C300,198.1,299.1,199,298,199z"/>
		</g>
		<text transform="matrix(1.1538 0 0 1 25.6504 184.1982)" class="st4 st1 st2">Old versions</text>
	</g>
</g>
</svg>
