<svg id="Layer_1" xmlns="http://www.w3.org/2000/svg" viewBox="0 0 1278 367"><style>.st0{fill:#0e77d2}.st1{font-family:&apos;IBMPlexSans-Medium&apos;}.st2{font-size:18px}.st3{fill:none}.st4{fill:#fff}.st6{font-family:&apos;IBMPlexSans&apos;}.st7{font-size:14px}</style><path d="M1198.1 25.8h17v45h-17zM881.1 25.8h17v135h-17zM564.1 25.8h17v315h-17zM248.1 25.8h16.5v135h-16.5z"/><path class="st0" d="M892 115.3H636.1c-1.1 0-2-.9-2-2v-40c0-1.1.9-2 2-2H892c1.1 0 2 .9 2 2v40c0 1.1-.9 2-2 2zM892 160.3H636.1c-1.1 0-2-.9-2-2v-40c0-1.1.9-2 2-2H892c1.1 0 2 .9 2 2v40c0 1.1-.9 2-2 2zM891.9 70.3H636c-1.1 0-2-.9-2-2v-40c0-1.1.9-2 2-2h255.9c1.1 0 2 .9 2 2v40c0 1.1-.9 2-2 2zM574.9 340.3H319c-1.1 0-2-.9-2-2v-40c0-1.1.9-2 2-2h255.9c1.1 0 2 .9 2 2v40c0 1.1-.9 2-2 2zM575 250.3H319.1c-1.1 0-2-.9-2-2v-40c0-1.1.9-2 2-2H575c1.1 0 2 .9 2 2v40c0 1.1-.9 2-2 2zM575 295.3H319.1c-1.1 0-2-.9-2-2v-40c0-1.1.9-2 2-2H575c1.1 0 2 .9 2 2v40c0 1.1-.9 2-2 2zM574.9 205.3H319c-1.1 0-2-.9-2-2v-40c0-1.1.9-2 2-2h255.9c1.1 0 2 .9 2 2v40c0 1.1-.9 2-2 2zM575 115.3H319.1c-1.1 0-2-.9-2-2v-40c0-1.1.9-2 2-2H575c1.1 0 2 .9 2 2v40c0 1.1-.9 2-2 2zM575 160.3H319.1c-1.1 0-2-.9-2-2v-40c0-1.1.9-2 2-2H575c1.1 0 2 .9 2 2v40c0 1.1-.9 2-2 2zM574.9 70.3H319c-1.1 0-2-.9-2-2v-40c0-1.1.9-2 2-2h255.9c1.1 0 2 .9 2 2v40c0 1.1-.9 2-2 2zM258 115.3H2.1c-1.1 0-2-.9-2-2v-40c0-1.1.9-2 2-2H258c1.1 0 2 .9 2 2v40c0 1.1-.9 2-2 2zM258 160.3H2.1c-1.1 0-2-.9-2-2v-40c0-1.1.9-2 2-2H258c1.1 0 2 .9 2 2v40c0 1.1-.9 2-2 2zM257.9 70.3H2c-1.1 0-2-.9-2-2v-40c0-1.1.9-2 2-2h255.9c1.1 0 2 .9 2 2v40c0 1.1-.9 2-2 2z"/><text transform="rotate(90 123.81 147.682)" class="st1 st2">Detailed Overview</text><text transform="rotate(90 281.806 306.181)" class="st1 st2">Guidelines</text><path class="st3" d="M22.1 40.2h266v110.1h-266z"/><text transform="translate(22.14 53.502)"><tspan x="0" y="0" class="st4 st1 st2">Anatomy</tspan><tspan x="0" y="45" class="st4 st1 st2">Specs</tspan><tspan x="0" y="90" class="st4 st1 st2">States</tspan></text><text transform="rotate(90 441.682 463.682)" class="st1 st2">Types</text><text transform="rotate(90 598.098 623.681)" class="st1 st2">Parts</text><text transform="translate(339.23 55.465)"><tspan x="0" y="0" class="st4 st1 st2">Best practices</tspan><tspan x="0" y="45" class="st4 st1 st2">Hierarchy</tspan><tspan x="0" y="90" class="st4 st1 st2">Placement</tspan><tspan x="0" y="135" class="st4 st1 st2">Accessibility guidelines</tspan><tspan x="0" y="180" class="st4 st1 st2">Animation guidelines</tspan><tspan x="0" y="225" class="st4 st1 st2">Animation guidelines</tspan><tspan x="0" y="270" class="st4 st1 st2">Responsive design </tspan><tspan x="157.8" y="270" class="st4 st1" font-size="12">guidelines</tspan></text><text transform="translate(656.23 55.465)"><tspan x="0" y="0" class="st4 st1 st2">Variations</tspan><tspan x="0" y="45" class="st4 st1 st2">Props</tspan><tspan x="0" y="90" class="st4 st1 st2">Themes</tspan></text><path class="st0" d="M1209 70.3H953c-1.1 0-2-.9-2-2v-40c0-1.1.9-2 2-2h256c1.1 0 2 .9 2 2v40c0 1.1-.9 2-2 2z"/><text transform="translate(973.23 55.465)" class="st4 st1 st2">Component part</text><path class="st3" d="M778.2 292.9h453v49.5h-453z"/><text transform="translate(778.226 303.223)"><tspan x="0" y="0" class="st6 st7">Groupings are not reflected in the IA of the page, they are used here to </tspan><tspan x="0" y="24" class="st6 st7">provide rationale for how the order of the subsections was determined.</tspan></text></svg>