<?xml version="1.0" encoding="utf-8"?>
<!-- Generator: Adobe Illustrator 21.1.0, SVG Export Plug-In . SVG Version: 6.00 Build 0)  -->
<svg version="1.1" id="Layer_1" xmlns="http://www.w3.org/2000/svg" xmlns:xlink="http://www.w3.org/1999/xlink" x="0px" y="0px"
	 viewBox="0 0 1278 266" style="enable-background:new 0 0 1278 266;" xml:space="preserve">
<style type="text/css">
	.st0{fill:#0E77D2;}
	.st1{font-family:'IBMPlexSans-Medium';}
	.st2{font-size:18px;}
	.st3{fill:none;}
	.st4{fill:#FFFFFF;}
</style>
<g>
	<path class="st0" d="M239,216H3c-1.1,0-2-0.9-2-2V98c0-1.1,0.9-2,2-2h236c1.1,0,2,0.9,2,2v116C241,215.1,240.1,216,239,216z"/>
	<polygon class="st0" points="201,78 201,118 241,118 	"/>
</g>
<text transform="matrix(1 0 0 1 1.2686 61.3184)" class="st1 st2">Introduction</text>
<rect x="11" y="135.9" class="st3" width="217" height="52.1"/>
<text transform="matrix(1 0 0 1 48.6758 149.229)"><tspan x="0" y="0" class="st4 st1 st2">Hello! I am .........</tspan><tspan x="21.5" y="24" class="st4 st1 st2">component.</tspan></text>
<g>
	<path class="st0" d="M494,216H258c-1.1,0-2-0.9-2-2V98c0-1.1,0.9-2,2-2h236c1.1,0,2,0.9,2,2v116C496,215.1,495.1,216,494,216z"/>
	<polygon class="st0" points="456,78 456,118 496,118 	"/>
</g>
<text transform="matrix(1 0 0 1 256.2686 61.3184)" class="st1 st2">Design</text>
<rect x="266" y="135.9" class="st3" width="217" height="52.1"/>
<text transform="matrix(1 0 0 1 301.1284 149.229)"><tspan x="0" y="0" class="st4 st1 st2">I look and behave</tspan><tspan x="36.5" y="24" class="st4 st1 st2">this way.</tspan></text>
<g>
	<path class="st0" d="M748,216H512c-1.1,0-2-0.9-2-2V98c0-1.1,0.9-2,2-2h236c1.1,0,2,0.9,2,2v116C750,215.1,749.1,216,748,216z"/>
	<polygon class="st0" points="710,78 710,118 750,118 	"/>
</g>
<text transform="matrix(1 0 0 1 510.2686 61.3184)" class="st1 st2">Content</text>
<rect x="520" y="135.9" class="st3" width="217" height="52.1"/>
<text transform="matrix(1 0 0 1 587.5908 149.229)"><tspan x="0" y="0" class="st4 st1 st2">This is my</tspan><tspan x="-47.6" y="24" class="st4 st1 st2">communication style.</tspan></text>
<g>
	<path class="st0" d="M1003,216H767c-1.1,0-2-0.9-2-2V98c0-1.1,0.9-2,2-2h236c1.1,0,2,0.9,2,2v116C1005,215.1,1004.1,216,1003,216z"
		/>
	<polygon class="st0" points="965,78 965,118 1005,118 	"/>
</g>
<text transform="matrix(1 0 0 1 765.2686 61.3184)" class="st1 st2">Developement</text>
<rect x="775" y="148.9" class="st3" width="217" height="52.1"/>
<text transform="matrix(1 0 0 1 804.8726 162.229)" class="st4 st1 st2">I am built this way.</text>
<g>
	<path class="st0" d="M1257,216h-236c-1.1,0-2-0.9-2-2V98c0-1.1,0.9-2,2-2h236c1.1,0,2,0.9,2,2v116C1259,215.1,1258.1,216,1257,216z
		"/>
	<polygon class="st0" points="1219,78 1219,118 1259,118 	"/>
</g>
<text transform="matrix(1 0 0 1 1019.2686 61.3184)" class="st1 st2">Related</text>
<rect x="1029" y="135.9" class="st3" width="217" height="52.1"/>
<text transform="matrix(1 0 0 1 1062.6704 149.229)"><tspan x="0" y="0" class="st4 st1 st2">Find out about me</tspan><tspan x="4.2" y="24" class="st4 st1 st2">and my relatives.</tspan></text>
</svg>
