<svg id="Layer_1" xmlns="http://www.w3.org/2000/svg" viewBox="0 0 1278 90"><style>.st0{fill:#0e77d2}.st2{fill:#fff}.st3{font-family:&apos;IBMPlexSans-Medium&apos;}.st4{font-size:18px}</style><path class="st0" d="M932 66H636c-1.1 0-2-.9-2-2V24c0-1.1.9-2 2-2h296c1.1 0 2 .9 2 2v40c0 1.1-.9 2-2 2zM615 66H319c-1.1 0-2-.9-2-2V24c0-1.1.9-2 2-2h296c1.1 0 2 .9 2 2v40c0 1.1-.9 2-2 2zM298 66H2c-1.1 0-2-.9-2-2V24c0-1.1.9-2 2-2h296c1.1 0 2 .9 2 2v40c0 1.1-.9 2-2 2z"/><path fill="none" d="M22.1 35.9h266v165.6h-266z"/><text transform="translate(22.14 49.229)" class="st2 st3 st4">Component Name</text><text transform="translate(339.23 51.191)" class="st2 st3 st4">Deck / Description</text><text transform="translate(656.23 51.191)" class="st2 st3 st4">When to Use</text><path class="st0" d="M1249 66H953c-1.1 0-2-.9-2-2V24c0-1.1.9-2 2-2h296c1.1 0 2 .9 2 2v40c0 1.1-.9 2-2 2z"/><text transform="translate(973.23 51.191)" class="st2 st3 st4">Example</text></svg>