<svg xmlns="http://www.w3.org/2000/svg" viewBox="0 0 1279 188"><style><![CDATA[.A{fill:#0E77D2}.C{fill:#fff}.D{font-family:'IBMPlexSans-Medium'}.E{font-size:18px}]]></style><path class="A" d="M932.5 135.5h-296c-1.1 0-2-.9-2-2v-40c0-1.1.9-2 2-2h296c1.1 0 2 .9 2 2v40c0 1.1-.9 2-2 2zm-317 0h-296c-1.1 0-2-.9-2-2v-40c0-1.1.9-2 2-2h296c1.1 0 2 .9 2 2v40c0 1.1-.9 2-2 2zm-317 0H2.5c-1.1 0-2-.9-2-2v-40c0-1.1.9-2 2-2h296c1.1 0 2 .9 2 2v40c0 1.1-.9 2-2 2z"/><path d="M22.6 105.4h266v58.1h-266z" fill="none"/><text transform="translate(22.64 118.729)" class="C D E">Title</text><text transform="translate(339.73 120.691)" class="C D E">Deck / Description</text><text transform="translate(656.73 120.691)" class="C D E">When to Use</text><path class="A" d="M1249.5 135.5h-296c-1.1 0-2-.9-2-2v-40c0-1.1.9-2 2-2h296c1.1 0 2 .9 2 2v40c0 1.1-.9 2-2 2z"/><text transform="translate(973.73 120.691)" class="C D E">Example</text><text transform="translate(2.766 64.104)" class="D E">Subsections of Introduction section</text></svg>
