<svg xmlns="http://www.w3.org/2000/svg" viewBox="0 0 1279 258.5"><style><![CDATA[.A{fill:#0E77D2}.B{fill:none}.C{fill:#fff}.D{font-family:'IBMPlexSans-Medium'}.E{font-size:18px}]]></style><path class="A" d="M931.5 135.5h-296c-1.1 0-2-.9-2-2v-40c0-1.1.9-2 2-2h296c1.1 0 2 .9 2 2v40c0 1.1-.9 2-2 2zm-317 0h-296c-1.1 0-2-.9-2-2v-40c0-1.1.9-2 2-2h296c1.1 0 2 .9 2 2v40c0 1.1-.9 2-2 2zm-317 0H1.5c-1.1 0-2-.9-2-2v-40c0-1.1.9-2 2-2h296c1.1 0 2 .9 2 2v40c0 1.1-.9 2-2 2z"/><path class="B" d="M21.6 105.4h266V228h-266z"/><text transform="translate(21.64 118.729)" class="C D E">Token and utility functions</text><text transform="translate(338.73 120.691)" class="C D E">Related components</text><text transform="translate(655.73 120.691)" class="C D E">Reference links</text><path class="A" d="M1248.5 135.5h-296c-1.1 0-2-.9-2-2v-40c0-1.1.9-2 2-2h296c1.1 0 2 .9 2 2v40c0 1.1-.9 2-2 2z"/><text transform="translate(972.73 120.691)" class="C D E">Sketch file</text><text transform="translate(1.766 64.104)" class="D E">Subsections of Related section</text><path class="A" d="M297.5 200.5H1.5c-1.1 0-2-.9-2-2v-40c0-1.1.9-2 2-2h296c1.1 0 2 .9 2 2v40c0 1.1-.9 2-2 2z"/><path class="B" d="M21.6 170.4h266V232h-266z"/><text transform="translate(21.64 183.729)" class="C D E">Old versions</text></svg>
