<svg id="Layer_1" xmlns="http://www.w3.org/2000/svg" viewBox="0 0 1278 156"><style>.st0{fill:#0e77d2}.st2{fill:#fff}.st3{font-family:&apos;IBMPlexSans-Medium&apos;}.st4{font-size:18px}</style><path class="st0" d="M932 66H636c-1.1 0-2-.9-2-2V24c0-1.1.9-2 2-2h296c1.1 0 2 .9 2 2v40c0 1.1-.9 2-2 2zM615 66H319c-1.1 0-2-.9-2-2V24c0-1.1.9-2 2-2h296c1.1 0 2 .9 2 2v40c0 1.1-.9 2-2 2zM298 66H2c-1.1 0-2-.9-2-2V24c0-1.1.9-2 2-2h296c1.1 0 2 .9 2 2v40c0 1.1-.9 2-2 2z"/><path fill="none" d="M22.1 35.9h266V131h-266z"/><text transform="translate(22.14 49.229)" class="st2 st3 st4">Token and utility functions</text><text transform="translate(339.23 51.191)" class="st2 st3 st4">Related components</text><text transform="translate(656.23 51.191)" class="st2 st3 st4">Reference links</text><path class="st0" d="M1249 66H953c-1.1 0-2-.9-2-2V24c0-1.1.9-2 2-2h296c1.1 0 2 .9 2 2v40c0 1.1-.9 2-2 2z"/><text transform="translate(973.23 51.191)" class="st2 st3 st4">Sketch file</text><path class="st0" d="M298 131H2c-1.1 0-2-.9-2-2V89c0-1.1.9-2 2-2h296c1.1 0 2 .9 2 2v40c0 1.1-.9 2-2 2z"/><text transform="matrix(1.1538 0 0 1 25.65 116.198)" class="st2 st3 st4">Old versions</text></svg>