<svg xmlns="http://www.w3.org/2000/svg" xmlns:xlink="http://www.w3.org/1999/xlink" viewBox="0 0 175 120"><defs><path id="a" d="M112.8 80.5c0 6.1-7.5 7.3-12.7 8 3-.7 4.8-1.6 4.7-8V55L97 51.9l8-3.1 8 3.1v28.6h-.2zm-17.3-4.8c0 2.4-3.1 2.4-4.7 1.6l-8-4.7V61.5L74.5 65c-1.6.7-3 2.7-3 4.4v17.5l-9.5 4V64.6c0-3.6 2.7-7.4 6-8.5l24.2-9v22.2l3.1 1.6v4.8h.2zm-8-57.9c-28.3 0-51.2 22.9-51.2 51.2s22.9 51.2 51.2 51.2 51.2-22.9 51.2-51.2-22.9-51.2-51.2-51.2z"/></defs><clipPath id="b"><use xlink:href="#a" overflow="visible"/></clipPath><g clip-path="url(#b)"><defs><path id="c" d="M-88.8-302.2h10800v4810H-88.8z"/></defs><clipPath id="d"><use xlink:href="#c" overflow="visible"/></clipPath><path clip-path="url(#d)" fill="#EBEBEB" d="M23.8 5.2h127.5v127.5H23.8z"/></g><path fill="none" d="M0 0h175v120H0z"/></svg>
